# xmcd
#
# Track frame offsets:
#	150
#	1105
#	14342
#	37220
#	114832
#	184437
#	212007
#	216457
#	228212
#
# Disc length: 3433 seconds
#
# Revision: 1
# Processed by: cddbd v1.5.1PL0 Copyright (c) Steve Scherf et al.
# Submitted via: CDex 1.50Beta5
#
DISCID=760d6709
DTITLE=岩崎和夫 - 青春ラジメニア
DYEAR=1997
DGENRE=
TTITLE0=岩崎和夫/OPENING DJ
TTITLE1=子門真人/青春ラジメニアの歌
TTITLE2=南かおり/WINDY BOY
TTITLE3=ひねくれ亭岩助/落語劇場「延陽伯」
TTITLE4=山寺宏一/WILD CAT
TTITLE5=ピーター・サイモン/CAN’T YOU HEAR ME,BABY WHAT I SAY
TTITLE6=青春ラジメニアの歌
TTITLE7=CAN’T YOU HEAR ME,BABY WHAT I SAY
TTITLE8=岩崎和夫/CD版ラジメニアのオマケ
EXTD=
EXTT0=
EXTT1=
EXTT2=
EXTT3=
EXTT4=
EXTT5=
EXTT6=
EXTT7=
EXTT8=
PLAYORDER=
